<?xml version="1.0" standalone="no"?>
<!DOCTYPE svg PUBLIC "-//W3C//DTD SVG 20010904//EN"
 "http://www.w3.org/TR/2001/REC-SVG-20010904/DTD/svg10.dtd">
<svg version="1.0" xmlns="http://www.w3.org/2000/svg"
 width="190.000000pt" height="184.000000pt" viewBox="0 0 190.000000 184.000000"
 preserveAspectRatio="xMidYMid meet">
<metadata>
Created by potrace 1.16, written by Peter Selinger 2001-2019
</metadata>
<g transform="translate(0.000000,184.000000) scale(0.100000,-0.100000)"
fill="#000000" stroke="none">
<path d="M236 1823 c-11 -38 -236 -1190 -236 -1208 1 -15 116 -91 480 -318
263 -164 485 -297 493 -295 8 1 220 136 471 298 384 249 455 299 456 318 0 13
-45 290 -100 616 -55 326 -100 595 -100 599 0 4 -328 7 -729 7 -686 0 -730 -1
-735 -17z m1304 -169 c0 -3 36 -220 81 -481 44 -262 77 -479 72 -483 -26 -24
-725 -471 -732 -468 -4 2 -177 109 -383 238 l-375 234 12 61 c6 33 49 250 95
483 l84 422 573 0 c315 0 573 -3 573 -6z"/>
<path d="M507 1468 c-22 -135 -60 -327 -67 -343 -13 -30 -52 -251 -57 -322 -3
-35 -1 -63 4 -63 8 0 157 -90 276 -166 192 -123 279 -174 297 -174 11 0 66 30
123 66 56 37 125 81 152 99 28 18 96 62 151 98 56 37 109 69 118 73 13 5 16
21 16 78 0 40 -4 76 -9 82 -4 5 -14 52 -20 104 -7 52 -15 103 -17 113 -5 16
-27 17 -285 17 l-279 0 0 -125 0 -125 168 0 167 0 -50 -32 c-27 -17 -90 -58
-139 -90 -49 -32 -93 -58 -98 -58 -5 0 -35 16 -66 37 -61 39 -98 62 -178 112
l-51 31 29 158 c16 86 32 172 35 190 l5 32 354 0 354 0 0 23 c0 20 -11 97 -25
185 l-6 32 -448 0 -449 0 -5 -32z"/>
</g>
</svg>
