<svg id="eocd6xufjc61" xmlns="http://www.w3.org/2000/svg" xmlns:xlink="http://www.w3.org/1999/xlink" viewBox="0 0 2048 1080" shape-rendering="geometricPrecision" text-rendering="geometricPrecision"><style><![CDATA[#eocd6xufjc67_tr {animation: eocd6xufjc67_tr__tr 1500ms linear infinite normal backwards}@keyframes eocd6xufjc67_tr__tr { 0% {transform: translate(1024.000031px,540.000031px) rotate(0deg);animation-timing-function: cubic-bezier(0.420000,0,0.580000,1)} 100% {transform: translate(1024.000031px,540.000031px) rotate(360deg)} }]]></style><defs><linearGradient id="eocd6xufjc67-stroke" x1="0" y1="0" x2="1" y2="0" spreadMethod="pad" gradientUnits="objectBoundingBox"><stop id="eocd6xufjc67-stroke-0" offset="0%" stop-color="rgb(15,18,43)"/><stop id="eocd6xufjc67-stroke-1" offset="100%" stop-color="rgb(227,14,143)"/></linearGradient></defs><g id="eocd6xufjc62"><rect id="eocd6xufjc63" width="2050" height="1082" rx="0" ry="0" transform="matrix(1 0 0 1 -2050 -479.66535999999985)" fill="rgb(255,255,255)" stroke="none" stroke-width="1"/><g id="eocd6xufjc64" display="none"><rect id="eocd6xufjc65" width="2048" height="1080" rx="0" ry="0" fill="rgb(0,0,0)" stroke="none" stroke-width="0"/></g></g><g id="eocd6xufjc66"><g id="eocd6xufjc67_tr" transform="translate(1024.000031,540.000031) rotate(0)"><ellipse id="eocd6xufjc67" rx="163.998000" ry="163.998000" transform="scale(0.800000,0.800000) translate(-0.000031,-0.000031)" fill="none" stroke="url(#eocd6xufjc67-stroke)" stroke-width="10"/></g><g id="eocd6xufjc68"><path id="eocd6xufjc69" d="M961.283880,468.668530L1090.705130,468.668540L1107.990840,577.701470L1025.551310,631.331490L940.009220,578.587920L961.283890,468.668530L961.283880,468.668530Z" transform="matrix(0.80000000000000 0 0 0.80000000000000 204.79999999999995 109.99998779296874)" fill="none" stroke="rgb(0,0,0)" stroke-width="18"/><path id="eocd6xufjc610" d="M1067.995160,493.346560C1067.995160,493.346560,980.504740,493.346560,980.004850,492.846630C980.504740,493.346560,967.506160,567.838410,967.506160,566.838520C967.506160,565.838630,1024.999870,602.334640,1024.999870,602.334640C1024.999870,602.334640,1080.493800,565.838630,1079.993910,565.338700C1080.493800,565.838630,1073.994510,530.342510,1073.494620,529.842580C1073.994510,530.342510,1020.000410,531.342400,1019.500530,530.842470C1020.000410,531.342400,1020.000410,554.839830,1019.500530,554.339900C1020.000410,554.839830,1055.496530,553.839940,1054.996640,553.340010C1055.496530,553.839940,1025.499810,575.337590,1024.999920,574.837660C1025.499810,575.337590,992.503420,555.339780,992.003530,554.839850C992.503420,555.339780,1000.502550,515.344150,1000.002660,514.844220C1000.502550,515.344150,1072.494670,515.844100,1071.994780,515.344170L1067.995160,493.346560Z" transform="matrix(0.80000000000000 0 0 0.80000000000000 204.75272216796873 109.51812133789059)" fill="rgb(0,0,0)" stroke="rgb(247,39,39)" stroke-width="0"/></g></g></svg>